<?xml version="1.0" standalone="no"?>
<!DOCTYPE svg PUBLIC "-//W3C//DTD SVG 20010904//EN"
 "http://www.w3.org/TR/2001/REC-SVG-20010904/DTD/svg10.dtd">
<svg version="1.0" xmlns="http://www.w3.org/2000/svg"
 width="161.000000pt" height="161.000000pt" viewBox="0 0 161.000000 161.000000"
 preserveAspectRatio="xMidYMid meet">
<metadata>
Created by potrace 1.11, written by Peter Selinger 2001-2013
</metadata>
<g transform="translate(0.000000,161.000000) scale(0.100000,-0.100000)"
fill="#000000" stroke="none">
<path d="M0 805 l0 -805 805 0 805 0 0 805 0 805 -805 0 -805 0 0 -805z m983
739 c91 -20 214 -78 294 -137 120 -90 229 -253 267 -402 20 -80 23 -234 5
-246 -10 -6 -11 -9 -1 -9 30 0 -10 -218 -41 -221 -53 -6 -86 -2 -182 22 -60
16 -113 25 -118 20 -11 -11 116 -59 199 -75 38 -8 59 -15 47 -15 -37 -2 -122
20 -192 49 -37 15 -80 26 -96 25 -17 -1 -21 0 -10 2 11 3 26 10 33 16 10 8 6
14 -20 25 -18 8 -37 16 -43 17 -5 2 -38 12 -72 24 -34 12 -77 21 -95 21 -61 0
-64 17 -5 24 59 8 77 25 50 48 -13 10 -17 10 -20 0 -4 -9 -12 -7 -31 7 -15 10
-43 22 -62 26 -19 4 -51 15 -70 25 -19 10 -46 16 -59 14 -24 -4 -66 31 -56 47
3 4 1 10 -4 13 -6 4 -6 19 0 41 6 21 6 42 1 52 -5 10 -13 40 -17 67 l-7 49 32
-7 c17 -3 44 -14 58 -25 15 -10 32 -20 37 -20 6 -1 29 -7 53 -13 40 -10 42
-12 26 -29 -9 -10 -13 -22 -10 -28 4 -5 -3 -15 -14 -21 -34 -18 -23 -54 18
-58 17 -2 32 1 32 6 0 5 15 12 33 16 25 5 29 9 17 16 -13 8 -12 10 3 10 9 0
17 7 17 15 0 8 5 15 10 15 17 0 11 20 -7 28 -19 8 -27 75 -8 69 14 -5 31 14
39 46 6 25 10 27 55 27 96 0 140 35 107 85 -27 42 -48 47 -126 30 -105 -22
-128 -20 -136 10 -4 14 -9 24 -12 21 -3 -3 -11 2 -18 12 -7 9 -16 18 -21 18
-22 4 -53 17 -53 23 0 4 -8 7 -17 8 -10 1 -30 5 -45 8 -37 10 -88 -3 -67 -16
10 -6 5 -9 -17 -9 -24 0 -44 -11 -76 -42 -75 -71 -81 -87 -80 -189 1 -81 -6
-106 -23 -79 -3 6 -10 10 -15 10 -19 0 8 -45 36 -61 22 -13 29 -23 27 -44 -3
-33 24 -95 41 -95 22 0 18 62 -5 86 -30 32 -32 97 -4 102 20 4 20 4 1 -17 -17
-19 -17 -21 -3 -15 13 5 16 2 11 -10 -4 -11 -1 -16 10 -16 9 0 16 -4 16 -10 0
-5 4 -10 9 -10 4 0 6 11 3 25 -2 14 -8 25 -13 25 -5 0 -9 4 -9 9 0 20 55 -6
61 -30 14 -50 10 -67 -18 -77 l-28 -10 26 -10 c20 -8 29 -22 38 -56 15 -60 15
-61 -13 -80 -22 -14 -27 -14 -55 0 -30 15 -57 11 -46 -7 4 -5 -15 -9 -42 -9
-44 1 -47 2 -29 15 27 21 6 19 -23 -2 -14 -9 -21 -11 -17 -5 9 15 1 15 -25 0
-17 -10 -23 -10 -26 0 -3 6 -11 12 -18 12 -7 0 -18 14 -24 30 -14 41 -36 39
-34 -2 1 -18 2 -36 2 -39 1 -3 13 -4 29 -1 21 3 24 2 16 -8 -7 -6 -38 -15 -70
-19 -33 -4 -69 -13 -82 -20 -12 -6 -27 -9 -33 -6 -5 4 -26 -3 -45 -14 -43 -26
-41 -26 -47 4 -3 20 1 29 22 40 l26 14 -30 1 -30 0 42 26 c24 14 43 27 43 29
0 6 -52 -16 -64 -27 -16 -13 -26 -9 -26 12 0 12 7 20 16 20 15 0 15 3 -1 27
-35 53 0 237 72 374 96 186 280 329 485 380 94 23 246 24 341 3z m-36 -570
c-3 -3 -12 -4 -19 -1 -8 3 -5 6 6 6 11 1 17 -2 13 -5z m-217 -299 c0 -5 19
-30 42 -54 l42 -44 24 29 c26 31 26 29 -12 -61 -35 -83 -56 -82 -113 5 -24 36
-43 72 -43 81 0 8 -6 24 -14 35 -13 17 -12 20 17 35 29 16 32 16 44 0 7 -9 13
-20 13 -26z m159 -41 c-14 -18 -24 -11 -15 11 3 9 11 13 16 10 8 -5 7 -11 -1
-21z m-389 -9 c18 -9 30 -19 27 -21 -3 -3 -20 2 -38 11 -17 10 -53 21 -78 26
l-46 8 52 -4 c29 -2 66 -11 83 -20z m563 -22 c30 -21 54 -39 52 -41 -2 -2 -24
10 -49 27 -24 17 -62 35 -83 40 -37 9 -37 9 -7 10 20 1 50 -12 87 -36z m-129
-9 c3 -8 2 -12 -4 -9 -6 3 -10 10 -10 16 0 14 7 11 14 -7z m-26 -49 c-3 -3 -9
2 -12 12 -6 14 -5 15 5 6 7 -7 10 -15 7 -18z m-439 -52 c-1 -53 -6 -49 -11 10
-2 20 0 37 4 37 4 0 8 -21 7 -47z m217 -5 l17 -33 -26 25 c-28 26 -34 40 -17
40 5 0 17 -15 26 -32z m84 -93 c0 -10 -10 -15 -32 -14 l-33 1 30 13 c17 8 31
14 33 15 1 0 2 -7 2 -15z m75 -5 c3 -5 1 -10 -4 -10 -6 0 -11 -6 -11 -13 0
-17 93 -63 98 -49 2 6 27 16 56 23 42 9 72 8 161 -6 61 -9 139 -19 174 -22
l64 -6 -22 -19 c-18 -14 -40 -18 -95 -18 -39 0 -88 -4 -109 -9 -84 -20 -263
29 -342 94 -11 9 -14 14 -7 10 11 -5 17 6 13 28 -2 11 17 9 24 -3z m295 -210
c0 -5 -4 -10 -10 -10 -5 0 -10 5 -10 10 0 6 5 10 10 10 6 0 10 -4 10 -10z m11
-23 c-10 -9 -11 -8 -5 6 3 10 9 15 12 12 3 -3 0 -11 -7 -18z"/>
<path d="M1010 963 c0 -5 5 -15 10 -23 8 -12 10 -11 10 8 0 12 -4 22 -10 22
-5 0 -10 -3 -10 -7z"/>
<path d="M987 914 c-9 -10 2 -24 19 -24 8 0 14 7 14 15 0 15 -21 21 -33 9z"/>
<path d="M1500 840 c0 -5 5 -10 10 -10 6 0 10 5 10 10 0 6 -4 10 -10 10 -5 0
-10 -4 -10 -10z"/>
<path d="M1500 773 c0 -22 -2 -25 -10 -13 -8 13 -10 12 -10 -2 0 -16 5 -19 28
-17 4 0 6 7 4 16 -2 8 1 12 6 9 6 -3 9 2 8 11 -5 30 -26 27 -26 -4z"/>
<path d="M535 780 c3 -5 8 -10 11 -10 2 0 4 5 4 10 0 6 -5 10 -11 10 -5 0 -7
-4 -4 -10z"/>
<path d="M528 733 c7 -3 16 -2 19 1 4 3 -2 6 -13 5 -11 0 -14 -3 -6 -6z"/>
<path d="M238 693 c6 -2 18 -2 25 0 6 3 1 5 -13 5 -14 0 -19 -2 -12 -5z"/>
<path d="M1184 615 c10 -8 23 -12 29 -8 11 7 -12 23 -33 23 -12 -1 -11 -4 4
-15z"/>
</g>
</svg>
